<svg width="828" height="59" viewBox="0 0 828 59" fill="none" xmlns="http://www.w3.org/2000/svg">
<path d="M15.9899 57.4H-5.3769e-05L21.7299 2.0504e-05H38.1299L59.8599 57.4H43.8699L40.1799 47.15H19.6799L15.9899 57.4ZM23.3699 36.49H36.4899L29.9299 17.22L23.3699 36.49ZM63.9567 2.0504e-05H98.3967C104.137 2.0504e-05 108.291 1.31202 110.861 3.93602C113.485 6.50536 114.797 10.66 114.797 16.4V23.78C114.797 28.3174 114.031 31.8434 112.501 34.358C111.025 36.8727 108.647 38.54 105.367 39.36L115.617 57.4H99.6267L90.1967 40.18H78.7167V57.4H63.9567V2.0504e-05ZM100.037 16.4C100.037 13.12 98.3967 11.48 95.1167 11.48H78.7167V28.7H95.1167C98.3967 28.7 100.037 27.06 100.037 23.78V16.4ZM133.224 57.4H117.234L138.964 2.0504e-05H155.364L177.094 57.4H161.104L157.414 47.15H136.914L133.224 57.4ZM140.604 36.49H153.724L147.164 17.22L140.604 36.49ZM195.951 57.4H181.191V2.0504e-05H195.951V22.55H203.331L216.123 2.0504e-05H231.703L215.631 28.29L231.621 57.4H216.041L203.331 34.03H195.951V57.4ZM282.115 57.4H236.605V2.0504e-05H282.115V11.48H251.365V22.55H275.555V34.03H251.365V45.92H282.115V57.4ZM303.416 45.92H333.346V57.4H288.656V2.0504e-05H303.416V45.92ZM366.165 57.4H336.645V45.92H344.025V11.48H336.645V2.0504e-05H366.165V11.48H358.785V45.92H366.165V57.4ZM383.789 57.4H367.799L389.529 2.0504e-05H405.929L427.659 57.4H411.669L407.979 47.15H387.479L383.789 57.4ZM391.169 36.49H404.289L397.729 17.22L391.169 36.49ZM481.776 57.4H466.196L446.516 22.96V57.4H431.756V2.0504e-05H447.336L467.016 34.44V2.0504e-05H481.776V57.4ZM489.932 45.51C504.911 46.33 515.051 46.74 520.354 46.74C521.611 46.74 522.595 46.3847 523.306 45.674C524.071 44.9087 524.454 43.8974 524.454 42.64V35.26H505.594C499.854 35.26 495.672 33.9754 493.048 31.406C490.479 28.782 489.194 24.6 489.194 18.86V16.4C489.194 10.66 490.479 6.50536 493.048 3.93602C495.672 1.31202 499.854 2.0504e-05 505.594 2.0504e-05H534.376V11.48H508.874C505.594 11.48 503.954 13.12 503.954 16.4V18.04C503.954 21.32 505.594 22.96 508.874 22.96H523.634C528.991 22.96 532.927 24.2174 535.442 26.732C537.957 29.2467 539.214 33.1827 539.214 38.54V42.64C539.214 47.9974 537.957 51.9334 535.442 54.448C532.927 56.9627 528.991 58.22 523.634 58.22C520.846 58.22 517.894 58.1654 514.778 58.056L507.234 57.728C501.658 57.4547 495.891 57.072 489.932 56.58V45.51ZM603.152 2.0504e-05C609.329 2.0504e-05 614.003 1.61269 617.174 4.83802C620.399 8.00869 622.012 12.6827 622.012 18.86V38.54C622.012 44.7174 620.399 49.4187 617.174 52.644C614.003 55.8147 609.329 57.4 603.152 57.4H571.172V2.0504e-05H603.152ZM607.252 18.86C607.252 13.94 604.792 11.48 599.872 11.48H585.932V45.92H599.872C604.792 45.92 607.252 43.46 607.252 38.54V18.86ZM630.189 2.0504e-05H664.629C670.369 2.0504e-05 674.524 1.31202 677.093 3.93602C679.717 6.50536 681.029 10.66 681.029 16.4V23.78C681.029 28.3174 680.264 31.8434 678.733 34.358C677.257 36.8727 674.879 38.54 671.599 39.36L681.849 57.4H665.859L656.429 40.18H644.949V57.4H630.189V2.0504e-05ZM666.269 16.4C666.269 13.12 664.629 11.48 661.349 11.48H644.949V28.7H661.349C664.629 28.7 666.269 27.06 666.269 23.78V16.4ZM716.267 57.4H686.747V45.92H694.127V11.48H686.747V2.0504e-05H716.267V11.48H708.887V45.92H716.267V57.4ZM747.83 40.18L761.77 2.0504e-05H777.76L756.03 57.4H739.63L717.9 2.0504e-05H733.89L747.83 40.18ZM827.367 57.4H781.857V2.0504e-05H827.367V11.48H796.617V22.55H820.807V34.03H796.617V45.92H827.367V57.4Z" fill="#1A2229"/>
</svg>
