<svg width="14" height="12" viewBox="0 0 14 12" fill="none" xmlns="http://www.w3.org/2000/svg">
<path d="M11.6292 5.3445H0.59375C0.436278 5.3445 0.285255 5.40706 0.173905 5.51841C0.0625557 5.62976 0 5.78078 0 5.93825C0 6.09572 0.0625557 6.24675 0.173905 6.35809C0.285255 6.46944 0.436278 6.532 0.59375 6.532H11.6292L7.29838 10.8616C7.18688 10.9731 7.12425 11.1243 7.12425 11.282C7.12425 11.4397 7.18688 11.5909 7.29838 11.7024C7.40987 11.8139 7.56108 11.8765 7.71875 11.8765C7.87642 11.8765 8.02763 11.8139 8.13912 11.7024L13.4829 6.35862C13.5382 6.30347 13.582 6.23795 13.612 6.16581C13.6419 6.09368 13.6573 6.01635 13.6573 5.93825C13.6573 5.86015 13.6419 5.78282 13.612 5.71069C13.582 5.63855 13.5382 5.57303 13.4829 5.51787L8.13912 0.174125C8.02763 0.0626345 7.87642 0 7.71875 0C7.56108 0 7.40987 0.0626345 7.29838 0.174125C7.18688 0.285615 7.12425 0.436829 7.12425 0.5945C7.12425 0.752171 7.18688 0.903385 7.29838 1.01488L11.6292 5.3445Z" fill="white"/>
</svg>
