<svg width="258" height="348" viewBox="0 0 258 348" fill="none" xmlns="http://www.w3.org/2000/svg">
<path d="M108.114 -4.94719e-06C154.541 -4.94719e-06 189.605 6.49333 213.306 19.48C237.007 32.4667 248.857 55.3557 248.857 88.147C248.857 101.134 246.747 112.984 242.526 123.698C238.305 134.412 232.137 143.178 224.02 149.996C216.228 156.814 206.65 161.197 195.287 163.145V165.58C206.975 167.853 217.527 171.911 226.942 177.755C236.357 183.599 243.825 192.04 249.344 203.079C254.863 214.118 257.623 228.728 257.623 246.909C257.623 268.012 252.428 286.194 242.039 301.453C231.974 316.388 217.364 327.913 198.209 336.03C179.054 343.822 156.327 347.718 130.029 347.718H4.5687e-05V-4.94719e-06H108.114ZM116.393 137.821C137.821 137.821 152.593 134.412 160.71 127.594C169.151 120.776 173.372 110.874 173.372 97.887C173.372 84.5757 168.502 74.998 158.762 69.154C149.022 63.31 133.6 60.388 112.497 60.388H73.537V137.821H116.393ZM73.537 196.261V286.843H121.75C143.827 286.843 159.249 282.622 168.015 274.181C176.781 265.415 181.164 253.889 181.164 239.604C181.164 230.838 179.216 223.208 175.32 216.715C171.749 210.222 165.418 205.189 156.327 201.618C147.236 198.047 134.899 196.261 119.315 196.261H73.537Z" fill="#C1C1C1" fill-opacity="0.5"/>
</svg>
