<svg width="14" height="13" viewBox="0 0 14 13" fill="none" xmlns="http://www.w3.org/2000/svg">
<path d="M2.02804 7.06123L13.0635 7.06123C13.2209 7.06123 13.372 6.99361 13.4833 6.87324C13.5947 6.75286 13.6572 6.58961 13.6572 6.41937C13.6572 6.24914 13.5947 6.08589 13.4833 5.96551C13.372 5.84514 13.2209 5.77752 13.0635 5.77752L2.02804 5.77752L6.35885 1.09711C6.47034 0.976582 6.53298 0.813116 6.53298 0.642671C6.53298 0.472225 6.47034 0.30876 6.35885 0.188237C6.24736 0.067713 6.09615 4.05381e-06 5.93848 4.0389e-06C5.78081 4.024e-06 5.62959 0.067713 5.5181 0.188236L0.174352 5.96494C0.119058 6.02456 0.0751892 6.09539 0.0452562 6.17337C0.0153232 6.25135 -8.4351e-05 6.33495 -8.43579e-05 6.41937C-8.43647e-05 6.5038 0.0153232 6.5874 0.0452562 6.66538C0.0751891 6.74335 0.119058 6.81419 0.174352 6.87381L5.5181 12.6505C5.62959 12.771 5.78081 12.8387 5.93848 12.8387C6.09615 12.8387 6.24736 12.771 6.35885 12.6505C6.47034 12.53 6.53298 12.3665 6.53298 12.1961C6.53298 12.0256 6.47034 11.8622 6.35885 11.7416L2.02804 7.06123Z" fill="black"/>
</svg>
