<svg width="29" height="29" viewBox="0 0 29 29" fill="none" xmlns="http://www.w3.org/2000/svg">
<path d="M14.5 2.41675C7.83002 2.41675 2.41669 7.83008 2.41669 14.5001C2.41669 21.1701 7.83002 26.5834 14.5 26.5834C21.17 26.5834 26.5834 21.1701 26.5834 14.5001C26.5834 7.83008 21.17 2.41675 14.5 2.41675ZM20.1067 10.6334C19.9254 12.5426 19.14 17.1826 18.7413 19.3213C18.5721 20.2276 18.2338 20.5297 17.9196 20.5659C17.2188 20.6263 16.6871 20.1067 16.0104 19.6597C14.9471 18.9588 14.3429 18.5238 13.3159 17.8472C12.1196 17.0617 12.8929 16.6267 13.5817 15.9259C13.7629 15.7447 16.8563 12.9292 16.9167 12.6755C16.9251 12.6371 16.924 12.5972 16.9134 12.5593C16.9029 12.5214 16.8833 12.4866 16.8563 12.458C16.7838 12.3976 16.6871 12.4217 16.6025 12.4338C16.4938 12.458 14.8021 13.5817 11.5034 15.8051C11.02 16.1313 10.585 16.3005 10.1984 16.2884C9.76335 16.2763 8.94169 16.0467 8.32544 15.8413C7.56419 15.5997 6.9721 15.4667 7.02044 15.0438C7.0446 14.8263 7.34669 14.6088 7.9146 14.3792C11.4429 12.8447 13.7871 11.8297 14.9592 11.3463C18.3184 9.94466 19.0071 9.703 19.4663 9.703C19.5629 9.703 19.7925 9.72716 19.9375 9.848C20.0584 9.94466 20.0946 10.0776 20.1067 10.1742C20.0946 10.2467 20.1188 10.4642 20.1067 10.6334Z" fill="white"/>
</svg>
