<svg width="1394" height="666" viewBox="0 0 1394 666" fill="none" xmlns="http://www.w3.org/2000/svg">
<path d="M2.73444 661.5C111.834 578.026 190.264 545.161 356.734 508C601.462 456.281 844.734 441 961.734 441C1078.73 441 1198.94 369.006 1222.73 123.5C1225.52 22.9412 1296.48 -20.0486 1393.23 -6.99998" stroke="#CFCECE" stroke-width="9" stroke-dasharray="22 22"/>
<path d="M1176.73 243.833C1163.87 243.833 1153.4 254.301 1153.4 267.152C1153.32 285.95 1175.85 301.537 1176.73 302.167C1176.73 302.167 1200.15 285.95 1200.07 267.167C1200.07 254.301 1189.6 243.833 1176.73 243.833ZM1176.73 278.833C1170.29 278.833 1165.07 273.613 1165.07 267.167C1165.07 260.721 1170.29 255.5 1176.73 255.5C1183.18 255.5 1188.4 260.721 1188.4 267.167C1188.4 273.613 1183.18 278.833 1176.73 278.833Z" fill="#FF0E0E"/>
<path d="M140.734 520.333C128.972 520.333 119.401 529.904 119.401 541.653C119.324 558.84 139.924 573.091 140.734 573.667C140.734 573.667 162.145 558.84 162.068 541.667C162.068 529.904 152.497 520.333 140.734 520.333ZM140.734 552.333C134.841 552.333 130.068 547.56 130.068 541.667C130.068 535.773 134.841 531 140.734 531C146.628 531 151.401 535.773 151.401 541.667C151.401 547.56 146.628 552.333 140.734 552.333Z" fill="#FF0E0E"/>
</svg>
