<svg width="430" height="332" viewBox="0 0 430 332" fill="none" xmlns="http://www.w3.org/2000/svg">
<path d="M87.9209 183.874L122.02 179.976L130.257 211.556H82.5057L87.9209 183.874Z" fill="#9F616A"/>
<path d="M180.085 208.539C176.672 206.042 174.256 202.412 173.271 198.297C172.286 194.183 172.794 189.852 174.705 186.078C175.095 185.316 176.297 185.885 175.907 186.648C174.12 190.16 173.647 194.194 174.572 198.024C175.498 201.854 177.761 205.227 180.954 207.534C181.647 208.034 180.774 209.039 180.085 208.539Z" fill="white"/>
<path d="M171.452 244.026C180.005 242.776 187.773 238.346 193.206 231.619C193.744 230.952 194.75 231.822 194.213 232.488C188.545 239.478 180.452 244.072 171.549 245.353C170.7 245.475 170.608 244.147 171.452 244.026Z" fill="white"/>
<path d="M195.353 275.853C202.935 280.007 211.803 281.149 220.189 279.052C221.019 278.844 221.299 280.144 220.47 280.352C211.739 282.518 202.513 281.311 194.633 276.97C193.88 276.557 194.607 275.441 195.353 275.853Z" fill="white"/>
<path d="M202.884 278.634C196.521 247.847 188.566 237.582 188.566 237.582L185.528 235.225L181.873 232.385L181.891 232.02L181.024 231.725L180.821 231.567L180.487 231.31L180.434 231.368L180.32 231.485L163.784 225.861L142.803 218.731L133.089 206.097C131.507 204.039 129.471 202.376 127.139 201.238C124.808 200.099 122.245 199.517 119.65 199.535L88.6251 199.765C84.43 199.796 80.3982 201.396 77.3225 204.251L56.93 223.179L25.1548 238.364L25.101 238.31L24.7675 238.548L19.858 240.897L20.0608 241.952L17.0219 244.146C17.0219 244.146 9.06761 253.697 2.70407 282.344C1.08534 289.633 0.288621 305.269 0.000811381 324.537C-0.0136633 325.511 0.16566 326.479 0.528352 327.384C0.891044 328.289 1.42987 329.112 2.1135 329.807C2.79713 330.501 3.61192 331.053 4.5105 331.43C5.40908 331.806 6.37353 332 7.34775 332.001H198.247C199.22 332 200.184 331.807 201.082 331.43C201.981 331.054 202.795 330.503 203.479 329.81C204.163 329.116 204.702 328.293 205.065 327.389C205.428 326.485 205.608 325.518 205.595 324.544C205.314 303.578 204.518 286.539 202.884 278.634Z" fill="#3F3D56"/>
<path d="M109.007 195.765C131.456 195.765 149.653 177.556 149.653 155.094C149.653 132.632 131.456 114.423 109.007 114.423C86.559 114.423 68.3611 132.632 68.3611 155.094C68.3611 177.556 86.559 195.765 109.007 195.765Z" fill="#9F616A"/>
<path d="M98.6085 185.884C98.4349 185.501 98.2617 185.117 98.0889 184.732C98.1556 184.732 98.2212 184.744 98.2879 184.746L98.6085 185.884Z" fill="#2F2E41"/>
<path d="M67.2319 116.273C69.2875 114.632 71.6905 113.122 74.319 113.204C76.9475 113.287 79.6126 115.664 79.0681 118.239C83.8963 109.686 91.5809 103.108 100.773 99.6593C109.966 96.2108 120.078 96.1123 129.336 99.3811C135.868 101.687 142.274 106.301 143.775 113.068C144.16 114.805 144.243 116.709 145.327 118.12C146.694 119.896 149.308 120.301 151.46 119.675L151.525 119.656C151.888 119.532 152.281 119.52 152.652 119.621C153.022 119.723 153.354 119.933 153.604 120.225C153.854 120.517 154.011 120.878 154.054 121.26C154.097 121.642 154.024 122.028 153.845 122.369L151.997 125.818C154.327 126.338 156.748 126.286 159.054 125.668C159.437 125.567 159.842 125.588 160.213 125.726C160.584 125.865 160.903 126.115 161.126 126.443C161.349 126.77 161.466 127.158 161.46 127.555C161.453 127.951 161.325 128.336 161.092 128.656C154.997 137.029 144.815 142.436 134.423 142.372C127.038 142.327 119.576 139.78 112.389 141.479C109.609 142.137 107.011 143.409 104.786 145.202C102.561 146.995 100.766 149.264 99.5311 151.841C98.2965 154.419 97.6544 157.241 97.6518 160.1C97.6492 162.958 98.2862 165.781 99.516 168.361C97.3104 165.945 93.0395 166.517 90.7812 168.886C88.5228 171.256 87.938 174.792 88.1656 178.059C88.5137 183.055 90.4697 187.762 92.5322 192.344C75.2416 191.799 58.8881 179.663 53.3832 163.248C47.8545 146.767 53.6479 127.115 67.2319 116.273Z" fill="#090814"/>
<path opacity="0.2" d="M40.0046 269.339L51.4051 331.403L58.2458 331.999L40.0046 269.339Z" fill="black"/>
<path opacity="0.2" d="M165.581 264.658L154.182 331.358L147.341 331.999L165.581 264.658Z" fill="black"/>
<path d="M280.777 32.611C280.964 35.2871 281.752 37.8865 283.082 40.2159C285.885 45.1412 290.691 48.7068 295.867 50.826C302.334 53.4739 309.544 53.5557 316.407 52.9652C322.782 52.4167 329.092 51.1458 335.49 50.8836C340.438 50.7252 345.391 50.8435 350.325 51.2378C359.901 51.9177 369.434 53.1794 378.907 54.7087C381.473 55.1178 384.033 55.5574 386.588 56.0275C386.829 56.0488 387.068 56.0931 387.301 56.1599C387.347 56.1788 387.422 56.1642 387.463 56.1906C387.539 56.239 387.15 56.0673 387.387 56.2622C387.715 56.6071 388.008 56.9844 388.261 57.3883L391.758 61.8932C392.761 63.1851 393.695 64.7547 394.989 65.7732C395.903 66.48 397.006 66.9 398.159 66.9804C399.312 67.0608 400.462 66.7978 401.466 66.2248C402.514 65.5621 403.35 64.612 403.874 63.4876C404.679 62.0108 405.639 60.6242 406.738 59.3514C410.9 54.4928 416.686 51.5043 421.524 47.4165C423.868 45.5174 425.868 43.2296 427.437 40.653C428.776 38.3213 429.609 35.7332 429.881 33.0577C430.46 27.6243 428.794 22.0837 425.991 17.4614C422.942 12.4954 418.562 8.48466 413.349 5.88504C407.493 2.90025 401.014 1.44579 394.521 0.721261C387.624 -0.0479507 380.648 -0.0457969 373.719 0.0322546C365.942 0.118739 358.179 0.460909 350.43 1.05877C342.67 1.65985 334.942 2.51411 327.244 3.62155C319.857 4.68413 312.38 5.79192 305.149 7.67215C298.761 9.3333 292.392 11.9295 287.622 16.6341C283.385 20.8182 280.435 26.5413 280.777 32.611Z" fill="#E6E6E6"/>
<path d="M314.525 10.7733C307.63 12.0464 300.413 13.6047 294.627 17.3803C288.905 21.1138 285.428 26.9838 285.764 32.335C286.259 40.1509 294.563 45.9956 302.127 47.527C309.372 48.9933 316.918 48.0002 324.907 46.9483C326.676 46.7158 328.504 46.4746 330.312 46.2658C349.979 43.991 386.906 50.9979 388.47 51.2972L390.094 51.6083L398.69 62.6765C400.647 58.3164 404.049 54.4408 407.661 51.5523C409.315 50.2297 411.041 49.0019 412.71 47.8145C416.966 44.7855 420.988 41.924 423.207 37.9929C428.04 29.4341 422.329 17.4955 414.18 12.1363C405 6.09886 392.902 5.15202 381.196 5.02768C379.977 5.01476 378.758 5.0083 377.538 5.0083C356.421 5.01061 335.347 6.93701 314.578 10.7637L314.525 10.7733Z" fill="white"/>
<path d="M309.023 20.2342C309.023 19.9969 309.07 19.7618 309.16 19.5424C309.251 19.323 309.384 19.1237 309.551 18.9556C309.719 18.7876 309.918 18.6543 310.137 18.5633C310.356 18.4722 310.591 18.4253 310.828 18.425H393.839C394.318 18.425 394.777 18.6155 395.116 18.9544C395.455 19.2933 395.645 19.753 395.645 20.2324C395.645 20.7117 395.455 21.1714 395.116 21.5103C394.777 21.8492 394.318 22.0396 393.839 22.0396H310.828C310.349 22.0392 309.891 21.8489 309.552 21.5104C309.214 21.1719 309.024 20.7129 309.023 20.2342Z" fill="#E6E6E6"/>
<path d="M309.023 31.3272C309.023 31.0899 309.07 30.8548 309.16 30.6354C309.251 30.4161 309.384 30.2167 309.551 30.0487C309.719 29.8807 309.918 29.7473 310.137 29.6563C310.356 29.5652 310.591 29.5183 310.828 29.5181H393.843C394.322 29.5186 394.781 29.7095 395.119 30.0487C395.458 30.388 395.648 30.8479 395.647 31.3272C395.647 31.8066 395.456 32.2661 395.117 32.6047C394.778 32.9432 394.318 33.1332 393.839 33.1327H310.828C310.349 33.1322 309.891 32.9419 309.552 32.6034C309.214 32.2649 309.024 31.8059 309.023 31.3272Z" fill="#E6E6E6"/>
<path d="M382.361 42.4195C382.361 42.1822 382.407 41.9471 382.498 41.7277C382.588 41.5083 382.721 41.309 382.889 41.141C383.056 40.9729 383.255 40.8396 383.474 40.7486C383.693 40.6575 383.928 40.6106 384.165 40.6104H393.839C394.318 40.6104 394.777 40.8008 395.116 41.1397C395.455 41.4786 395.645 41.9383 395.645 42.4177C395.645 42.897 395.455 43.3567 395.116 43.6956C394.777 44.0345 394.318 44.2249 393.839 44.2249H384.165C383.687 44.2245 383.228 44.0342 382.89 43.6957C382.552 43.3572 382.362 42.8982 382.361 42.4195Z" fill="#E6E6E6"/>
<path d="M200.68 165.049C200.034 165.025 199.403 164.846 198.841 164.526C198.279 164.207 197.802 163.756 197.452 163.212C194.828 159.288 204.38 150.604 200.68 147.674C198.44 145.882 196.099 144.216 193.835 142.605C187.996 138.451 182.496 134.537 179.442 129.13C172.786 117.342 180.626 100.918 191.823 93.5531C204.383 85.2931 220.904 83.9975 236.886 83.8279C238.547 83.8103 240.209 83.8015 241.872 83.8015C270.669 83.8127 299.405 86.4419 327.726 91.6567C337.143 93.3954 347.001 95.5249 354.922 100.693C362.797 105.831 367.583 113.922 367.116 121.307C366.435 132.087 355.012 140.142 344.614 142.247C334.701 144.252 324.404 142.897 313.502 141.461C311.095 141.145 308.607 140.815 306.146 140.532C279.402 137.439 229.164 146.973 227.036 147.38L224.927 147.784L203.973 163.514C203.229 164.487 200.735 165.051 200.68 165.049Z" fill="#FA8604"/>
<path d="M332.711 107.27H219.674C219.021 107.27 218.396 107.011 217.934 106.549C217.473 106.088 217.214 105.462 217.214 104.809C217.214 104.156 217.473 103.531 217.934 103.069C218.396 102.607 219.021 102.348 219.674 102.348H332.711C333.363 102.348 333.989 102.607 334.45 103.069C334.911 103.531 335.171 104.156 335.171 104.809C335.171 105.462 334.911 106.088 334.45 106.549C333.989 107.011 333.363 107.27 332.711 107.27Z" fill="white"/>
<path d="M332.71 122.376H219.673C219.021 122.377 218.395 122.118 217.933 121.657C217.471 121.196 217.211 120.571 217.211 119.918C217.21 119.265 217.468 118.639 217.929 118.177C218.39 117.715 219.015 117.455 219.668 117.454H332.71C333.363 117.454 333.988 117.713 334.45 118.175C334.911 118.636 335.17 119.262 335.17 119.915C335.17 120.568 334.911 121.194 334.45 121.655C333.988 122.117 333.363 122.376 332.71 122.376Z" fill="white"/>
<path d="M232.845 137.481H219.673C219.021 137.481 218.395 137.222 217.934 136.76C217.472 136.299 217.213 135.673 217.213 135.02C217.213 134.367 217.472 133.741 217.934 133.28C218.395 132.818 219.021 132.559 219.673 132.559H232.846C233.498 132.559 234.124 132.818 234.585 133.28C235.046 133.741 235.306 134.367 235.306 135.02C235.306 135.673 235.046 136.299 234.585 136.76C234.124 137.222 233.498 137.481 232.845 137.481Z" fill="white"/>
<path d="M400.424 117.454C413.008 117.454 423.209 107.247 423.209 94.6551C423.209 82.0635 413.008 71.856 400.424 71.856C387.84 71.856 377.639 82.0635 377.639 94.6551C377.639 107.247 387.84 117.454 400.424 117.454Z" fill="#E6E6E6"/>
<mask id="mask0_38_15" style="mask-type:luminance" maskUnits="userSpaceOnUse" x="377" y="71" width="47" height="47">
<path d="M400.424 117.454C413.008 117.454 423.209 107.247 423.209 94.6551C423.209 82.0635 413.008 71.856 400.424 71.856C387.84 71.856 377.639 82.0635 377.639 94.6551C377.639 107.247 387.84 117.454 400.424 117.454Z" fill="white"/>
</mask>
<g mask="url(#mask0_38_15)">
<path d="M387.769 90.0413C388.54 88.2596 389.709 86.6789 391.188 85.4213C392.666 84.1638 394.413 83.263 396.295 82.7885C400.472 81.7011 406.589 83.3574 409.729 85.7356C415.474 90.0855 416.875 105.029 412.929 109.751C412.144 109.719 409.435 109.697 408.641 109.674L407.517 106.827V109.646C401.315 109.5 394.859 109.592 388.4 109.686C387.82 106.343 386.441 93.2592 387.769 90.0413Z" fill="#2F2E41"/>
<path d="M394.983 101.947L402.605 101.348L404.677 110.505H394.983V101.947Z" fill="#ED9DA0"/>
<path d="M396.405 106.147C401.353 106.147 405.364 102.134 405.364 97.1833C405.364 92.2326 401.353 88.2192 396.405 88.2192C391.457 88.2192 387.446 92.2326 387.446 97.1833C387.446 102.134 391.457 106.147 396.405 106.147Z" fill="#ED9DA0"/>
<path d="M390.25 85.5112C391.971 84.4613 393.943 83.8934 395.958 83.8669C397.974 83.8404 399.96 84.3563 401.708 85.3605C403.457 86.3648 404.903 87.8206 405.897 89.5757C406.891 91.3308 407.395 93.3208 407.357 95.3376C402.473 96.5864 397.269 97.1091 391.756 95.6385L390.495 92.5514L389.752 95.6407C388.066 96.8281 386.438 96.826 384.867 95.6342C384.8 93.6231 385.262 91.6297 386.207 89.8532C387.151 88.0768 388.545 86.5796 390.25 85.5112Z" fill="#2F2E41"/>
<path d="M383.199 158.361C383.284 158.028 383.472 157.73 383.737 157.51C384.001 157.29 384.328 157.16 384.672 157.138C385.012 153.245 387.26 128.278 387.346 127.546L387.349 127.515L388 113.598C388.024 113.093 388.233 112.614 388.587 112.253C388.941 111.892 389.416 111.674 389.92 111.641L393.359 111.416C393.406 111.415 393.451 111.395 393.484 111.361C393.517 111.327 393.535 111.281 393.535 111.234C393.535 110.467 393.84 109.731 394.382 109.188C394.924 108.646 395.66 108.341 396.427 108.341H406.609C407.269 108.341 407.905 108.582 408.399 109.019C408.894 109.456 409.212 110.058 409.294 110.713C409.299 110.758 409.32 110.799 409.354 110.829C409.388 110.859 409.432 110.875 409.477 110.874C410.634 110.85 411.761 111.242 412.654 111.979C413.546 112.715 414.146 113.748 414.343 114.889C415.735 122.992 418.524 141.382 417.145 151.607C416.665 155.166 416.883 160.52 417.065 163.497C417.083 163.785 417.044 164.074 416.95 164.347C416.857 164.619 416.71 164.871 416.519 165.087C416.925 165.204 417.27 165.474 417.481 165.841C417.691 166.207 417.752 166.641 417.649 167.051C417.543 167.471 417.275 167.832 416.903 168.054C416.531 168.276 416.086 168.341 415.666 168.235L384.384 160.345C383.964 160.239 383.603 159.97 383.381 159.598C383.159 159.226 383.093 158.781 383.199 158.361Z" fill="#FA8604"/>
</g>
</svg>
