<svg width="54" height="54" viewBox="0 0 54 54" fill="none" xmlns="http://www.w3.org/2000/svg">
<g clip-path="url(#clip0_21_34)">
<path d="M1.6875 14.3439L27 27.0001L52.3125 14.3439V41.3439L27 53.9999L1.6875 41.3437V14.3439Z" fill="#DB5449"/>
<path d="M1.6875 16.8749V24.764L26.9156 37.1249L52.3124 24.7218V16.8749L27 29.2782L1.6875 16.8749Z" fill="#C54B42"/>
<path d="M27 53.9999V27.0001L3.37501 15.1876H1.6875V41.3439L27 53.9999Z" fill="#D05045"/>
<path d="M1.6875 16.8749V24.764L26.9156 37.1249L27 37.0827V29.2359V29.2781L1.6875 16.8749Z" fill="#BB483E"/>
<path d="M0 13.458L27 0.000244141L54 13.458V15.23L27 28.6875L0 15.2721V13.458Z" fill="#EB6258"/>
<path d="M42.4827 4.26097C41.5968 2.65787 39.6983 1.6875 37.4624 1.6875C32.3578 1.6875 28.7718 6.45472 26.9999 9.49222C25.228 6.45472 21.5999 1.7297 16.5374 1.7297C13.289 1.7297 10.9686 3.71254 10.9686 6.41252C10.9686 11.2218 16.2421 14.3437 26.8311 14.3437C37.4201 14.3437 43.0311 10.336 43.0311 6.45472C43.0312 5.69537 42.8625 4.93602 42.4827 4.26097ZM17.6344 9.45013C16.4531 8.64857 16.0313 7.76261 16.0313 7.17197C16.0313 6.45483 16.7063 5.90639 17.6766 5.90639C19.9547 5.90639 21.7688 8.90169 22.7812 10.9689C20.1234 10.7579 18.5624 10.0407 17.6344 9.45013ZM36.3655 9.45013C35.4374 10.0408 33.8765 10.7579 31.2187 10.9688C32.1889 8.90169 34.0031 5.90628 36.3233 5.90628C37.2936 5.90628 37.9686 6.45472 37.9686 7.17187C37.9687 7.76261 37.5468 8.64847 36.3655 9.45013Z" fill="#EFEFEF"/>
<path d="M0 13.5001L27 26.7048L54 13.5001V22.2329L26.9156 35.4376L0 22.2329V13.5001Z" fill="#E2574C"/>
<path d="M37.125 22.9078V21.9376L27 16.4532L16.8751 21.9376V22.9078L10.1251 19.9547V18.6047L26.6625 9.87195L27 10.0407L27.3376 9.87195L43.875 18.5625V19.9125L37.125 22.9078Z" fill="#EFEFEF"/>
<path d="M37.125 21.9376V48.8954L43.8749 45.5204V18.5626L37.125 21.9376Z" fill="#DCDCDC"/>
<path d="M10.125 45.5625L16.8749 48.9375V21.9798L10.125 18.5626V45.5625Z" fill="#D1D1D1"/>
</g>
<defs>
<clipPath id="clip0_21_34">
<rect width="54" height="54" fill="white"/>
</clipPath>
</defs>
</svg>
