<svg width="44" height="26" viewBox="0 0 44 26" fill="none" xmlns="http://www.w3.org/2000/svg">
<path d="M39.0007 11.5329H1.28125C0.941441 11.5329 0.615551 11.6679 0.37527 11.9081C0.134989 12.1484 0 12.4743 0 12.8141C0 13.1539 0.134989 13.4798 0.37527 13.7201C0.615551 13.9604 0.941441 14.0954 1.28125 14.0954H39.0007L29.6553 23.4382C29.4147 23.6788 29.2795 24.0051 29.2795 24.3454C29.2795 24.6856 29.4147 25.0119 29.6553 25.2525C29.8958 25.4931 30.2221 25.6282 30.5624 25.6282C30.9026 25.6282 31.2289 25.4931 31.4695 25.2525L43.0008 13.7212C43.1201 13.6022 43.2148 13.4608 43.2794 13.3052C43.3439 13.1495 43.3772 12.9826 43.3772 12.8141C43.3772 12.6456 43.3439 12.4787 43.2794 12.3231C43.2148 12.1674 43.1201 12.026 43.0008 11.907L31.4695 0.375743C31.2289 0.135159 30.9026 0 30.5624 0C30.2221 0 29.8958 0.135159 29.6553 0.375743C29.4147 0.616328 29.2795 0.942631 29.2795 1.28287C29.2795 1.62311 29.4147 1.94941 29.6553 2.18999L39.0007 11.5329Z" fill="#222222"/>
</svg>
