<svg width="30" height="30" viewBox="0 0 30 30" fill="none" xmlns="http://www.w3.org/2000/svg">
<path d="M15.0012 2.5C21.905 2.5 27.5012 8.09625 27.5012 15C27.5012 21.9037 21.905 27.5 15.0012 27.5C12.7922 27.5038 10.622 26.9192 8.71374 25.8063L2.50624 27.5L4.19624 21.29C3.08244 19.3812 2.49737 17.21 2.50124 15C2.50124 8.09625 8.09749 2.5 15.0012 2.5ZM10.7412 9.125L10.4912 9.135C10.3296 9.14614 10.1717 9.18859 10.0262 9.26C9.89071 9.33689 9.76694 9.43287 9.65874 9.545C9.50874 9.68625 9.42374 9.80875 9.33249 9.9275C8.87014 10.5286 8.62121 11.2666 8.62499 12.025C8.62749 12.6375 8.78749 13.2338 9.03749 13.7913C9.54874 14.9187 10.39 16.1125 11.5 17.2188C11.7675 17.485 12.03 17.7525 12.3125 18.0013C13.6918 19.2155 15.3353 20.0912 17.1125 20.5588L17.8225 20.6675C18.0537 20.68 18.285 20.6625 18.5175 20.6512C18.8815 20.6321 19.2369 20.5335 19.5587 20.3625C19.7223 20.2779 19.882 20.1862 20.0375 20.0875C20.0375 20.0875 20.0904 20.0517 20.1937 19.975C20.3625 19.85 20.4662 19.7612 20.6062 19.615C20.7112 19.5067 20.7987 19.3808 20.8687 19.2375C20.9662 19.0338 21.0637 18.645 21.1037 18.3212C21.1337 18.0737 21.125 17.9388 21.1212 17.855C21.1162 17.7213 21.005 17.5825 20.8837 17.5238L20.1562 17.1975C20.1562 17.1975 19.0687 16.7238 18.4037 16.4213C18.3341 16.3909 18.2596 16.3736 18.1837 16.37C18.0982 16.3611 18.0117 16.3706 17.9302 16.398C17.8487 16.4254 17.774 16.47 17.7112 16.5287C17.705 16.5262 17.6212 16.5975 16.7175 17.6925C16.6656 17.7622 16.5942 17.8149 16.5122 17.8438C16.4303 17.8728 16.3416 17.8767 16.2575 17.855C16.176 17.8333 16.0962 17.8057 16.0187 17.7725C15.8637 17.7075 15.81 17.6825 15.7037 17.6375C14.9861 17.3249 14.3218 16.9018 13.735 16.3838C13.5775 16.2463 13.4312 16.0962 13.2812 15.9513C12.7895 15.4803 12.3609 14.9475 12.0062 14.3663L11.9325 14.2475C11.8803 14.1672 11.8375 14.0813 11.805 13.9913C11.7575 13.8075 11.8812 13.66 11.8812 13.66C11.8812 13.66 12.185 13.3275 12.3262 13.1475C12.4637 12.9725 12.58 12.8025 12.655 12.6813C12.8025 12.4438 12.8487 12.2 12.7712 12.0113C12.4212 11.1562 12.0596 10.3058 11.6862 9.46C11.6125 9.2925 11.3937 9.1725 11.195 9.14875C11.1275 9.14042 11.06 9.13375 10.9925 9.12875C10.8247 9.11912 10.6564 9.12079 10.4887 9.13375L10.7412 9.125Z" fill="white"/>
</svg>
